<?xml version="1.0" encoding="UTF-8" standalone="no"?>
<!DOCTYPE svg PUBLIC "-//W3C//DTD SVG 1.1//EN" "http://www.w3.org/Graphics/SVG/1.1/DTD/svg11.dtd">
<svg width="100%" height="100%" viewBox="0 0 650 846" version="1.1" xmlns="http://www.w3.org/2000/svg" xmlns:xlink="http://www.w3.org/1999/xlink" xml:space="preserve" xmlns:serif="http://www.serif.com/" style="fill-rule:evenodd;clip-rule:evenodd;stroke-linejoin:round;stroke-miterlimit:2;">
    <g transform="matrix(1,0,0,1,-1300.85,-3702.91)">
        <g>
            <g>
                <path d="M1694.51,4141.85C1694.51,4302.66 1645.3,4506.81 1497.68,4506.81C1382.65,4506.81 1300.85,4302.66 1300.85,4141.85C1300.85,3981.05 1388.97,3932.72 1497.68,3932.72C1606.39,3932.72 1694.51,3981.05 1694.51,4141.85Z" style="fill:rgb(242,175,28);fill-rule:nonzero;"/>
                <path d="M1557.19,4141.85C1557.19,4302.66 1606.39,4506.81 1754.02,4506.81C1874.02,4506.81 1950.85,4302.66 1950.85,4141.85C1950.85,3981.05 1862.73,3932.72 1754.02,3932.72C1645.31,3932.72 1557.19,3981.05 1557.19,4141.85Z" style="fill:rgb(242,175,28);fill-rule:nonzero;"/>
                <path d="M1822.68,4156.85C1822.68,4329.19 1773.47,4548 1625.85,4548C1461.83,4548 1429.01,4329.19 1429.01,4156.85C1429.01,3984.52 1517.14,3932.72 1625.85,3932.72C1734.55,3932.72 1822.68,3984.52 1822.68,4156.85Z" style="fill:rgb(253,211,1);fill-rule:nonzero;"/>
                <path d="M1596.86,4104.35C1565.48,4166.86 1599.87,4255.05 1565.37,4255.05C1498.79,4255.05 1485.48,4166.23 1485.48,4096.28C1485.48,4026.34 1521.25,4005.31 1565.37,4005.31C1609.49,4005.31 1623.95,4050.4 1596.86,4104.35Z" style="fill:rgb(252,240,101);fill-rule:nonzero;"/>
                <path d="M1643.12,3871.35C1644.84,3823.42 1663.25,3786.13 1711.7,3770.43L1684.36,3702.91C1620.44,3736.81 1586.53,3788.01 1597.25,3873.5C1540.24,3886.99 1497.68,3905.71 1497.68,3938.02C1497.68,3975.55 1555.06,3951.03 1625.85,3951.03C1696.64,3951.03 1754.02,3975.55 1754.02,3938.02C1754.02,3903.6 1705.74,3880.3 1643.12,3871.35Z" style="fill:rgb(162,206,92);fill-rule:nonzero;"/>
            </g>
        </g>
    </g>
</svg>
