<?xml version="1.0" encoding="UTF-8" standalone="no"?>
<!DOCTYPE svg PUBLIC "-//W3C//DTD SVG 1.1//EN" "http://www.w3.org/Graphics/SVG/1.1/DTD/svg11.dtd">
<svg width="100%" height="100%" viewBox="0 0 651 764" version="1.1" xmlns="http://www.w3.org/2000/svg" xmlns:xlink="http://www.w3.org/1999/xlink" xml:space="preserve" xmlns:serif="http://www.serif.com/" style="fill-rule:evenodd;clip-rule:evenodd;stroke-linejoin:round;stroke-miterlimit:2;">
    <g transform="matrix(1,0,0,1,-1300.85,-2476.49)">
        <g>
            <g>
                <path d="M1947.04,2962.9C1911.86,3159.29 1802.87,3240.27 1625.04,3240.27C1447.22,3240.27 1329.55,3160.98 1303.06,2962.9C1280.04,2790.84 1440.29,2625.73 1625.04,2685.54C1831.91,2619.7 1976.5,2798.47 1947.04,2962.9Z" style="fill:rgb(237,48,44);fill-rule:nonzero;"/>
                <path d="M1478.55,2869.8C1425.4,2911.25 1418.89,3002.23 1388.86,2987.97C1330.9,2960.46 1356.02,2877.64 1384.92,2816.74C1413.83,2755.85 1453.66,2752.33 1492.07,2770.57C1530.48,2788.8 1524.44,2834.03 1478.55,2869.8Z" style="fill:rgb(242,123,125);fill-rule:nonzero;"/>
                <path d="M1621.31,2667.75C1595.53,2594.39 1609.37,2517.03 1686.51,2476.49L1710.17,2534.97C1654.38,2553.17 1645.41,2600.43 1653.15,2657.66C1653.2,2657.96 1653.24,2658.12 1653.24,2658.12L1621.31,2667.75Z" style="fill:rgb(58,157,71);fill-rule:nonzero;"/>
                <path d="M1711.19,2668.75C1710,2646.01 1768.51,2637.55 1753.21,2599.11C1698.82,2637.55 1657.9,2625.81 1629.62,2664.06C1601.34,2625.81 1560.42,2637.55 1506.04,2599.11C1490.74,2637.55 1552.54,2642.73 1551.35,2665.46C1505.18,2674.77 1466.77,2646 1402.1,2633.04C1441.21,2679.97 1451.39,2720.31 1548.94,2702.52C1573.55,2699.14 1618.72,2716.97 1623.15,2716.4C1630.6,2715.43 1684.6,2695.31 1720.19,2701.82C1838.68,2709.83 1818.03,2679.97 1857.15,2633.04C1792.47,2646 1757.37,2678.07 1711.19,2668.75Z" style="fill:rgb(58,157,71);fill-rule:nonzero;"/>
            </g>
        </g>
    </g>
</svg>
