<?xml version="1.0" encoding="UTF-8" standalone="no"?>
<!DOCTYPE svg PUBLIC "-//W3C//DTD SVG 1.1//EN" "http://www.w3.org/Graphics/SVG/1.1/DTD/svg11.dtd">
<svg width="100%" height="100%" viewBox="0 0 650 488" version="1.1" xmlns="http://www.w3.org/2000/svg" xmlns:xlink="http://www.w3.org/1999/xlink" xml:space="preserve" xmlns:serif="http://www.serif.com/" style="fill-rule:evenodd;clip-rule:evenodd;stroke-linejoin:round;stroke-miterlimit:2;">
    <g transform="matrix(1,0,0,1,-2538.35,-118.242)">
        <g>
            <g>
                <path d="M2857.56,512.209L2742.85,512.209L2736.82,563.322L2752.93,554.216L2766.48,563.322L2783.37,554.216L2800.2,563.322L2817.04,554.216L2833.93,563.322L2847.48,554.216L2863.59,563.322L2857.56,512.209Z" style="fill:rgb(114,96,64);fill-rule:nonzero;"/>
                <path d="M3060.22,370.975C3040.98,253.812 2874.18,212.807 2874.17,199.906L2874.17,118.242L2726.25,118.242L2726.25,199.906C2726.23,212.807 2559.43,253.812 2540.19,370.975C2517.97,506.264 2702.13,506.61 2800.21,506.61C2898.29,506.61 3082.45,506.264 3060.22,370.975Z" style="fill:rgb(171,143,109);fill-rule:nonzero;"/>
                <path d="M3002.72,370.975C2987.73,253.812 2852.17,218.41 2852.16,205.508L2852.16,118.242L2748.26,118.242L2748.26,205.508C2748.24,218.41 2612.68,253.812 2597.69,370.975C2580.38,506.264 2723.81,506.61 2800.21,506.61C2876.6,506.61 3020.03,506.264 3002.72,370.975Z" style="fill:rgb(187,156,124);fill-rule:nonzero;"/>
                <path d="M2827.01,118.242L2771.85,118.242C2771.85,299.087 2701.6,355.572 2702.65,451.651C2703.71,549.327 2896.61,551.795 2897.77,451.659C2898.75,366.777 2827.01,292.286 2827.01,118.242Z" style="fill:rgb(215,192,151);fill-rule:nonzero;"/>
                <path d="M2906.55,567.723C2898.69,561.583 2896.52,551.722 2898.43,543.079C3032.21,612.723 3190.44,483.109 3141.84,352.848C3147.81,350.704 3154.79,352.489 3159.38,359.009C3265.4,509.541 3057.38,685.348 2906.55,567.723Z" style="fill:rgb(215,192,151);fill-rule:nonzero;"/>
                <path d="M2898.43,543.079C2900.72,532.735 2908.85,524.113 2920.1,525.627C3013.53,538.349 3112.04,465.216 3130.79,366.706C3132.15,359.471 3136.62,354.656 3141.84,352.848C3190.44,483.109 3032.21,612.723 2898.43,543.079Z" style="fill:rgb(187,156,124);fill-rule:nonzero;"/>
            </g>
        </g>
    </g>
</svg>
