<?xml version="1.0" encoding="UTF-8" standalone="no"?>
<!DOCTYPE svg PUBLIC "-//W3C//DTD SVG 1.1//EN" "http://www.w3.org/Graphics/SVG/1.1/DTD/svg11.dtd">
<svg width="100%" height="100%" viewBox="0 0 468 699" version="1.1" xmlns="http://www.w3.org/2000/svg" xmlns:xlink="http://www.w3.org/1999/xlink" xml:space="preserve" xmlns:serif="http://www.serif.com/" style="fill-rule:evenodd;clip-rule:evenodd;stroke-linejoin:round;stroke-miterlimit:2;">
    <g transform="matrix(1,0,0,1,-1383.44,-25.8384)">
        <g>
            <g>
                <path d="M1798.35,422.014C1792.11,428.723 1650.52,629.535 1652.1,724.838C1646.14,718.881 1632.86,714.773 1617.46,714.706L1616.91,26.008L1617.19,26.008C1670.11,24.774 1719.13,63.39 1730.01,120.422C1791.84,88.583 1850.65,127.951 1850.72,198.951C1850.79,261.393 1812.24,289.531 1807.38,305.963C1843.87,331.5 1834.22,383.194 1798.35,422.014Z" style="fill:rgb(92,118,53);fill-rule:nonzero;"/>
                <path d="M1617.19,25.87L1617.19,714.706C1601.85,714.706 1588.64,718.677 1582.47,724.564C1583.7,629.19 1442.25,428.793 1436.02,422.081C1400.08,383.26 1390.43,331.57 1426.92,305.963C1421.98,289.602 1383.44,261.53 1383.44,199.021C1383.44,128.022 1442.25,88.654 1504.08,120.422C1514.96,63.32 1564.05,24.57 1617.19,25.87Z" style="fill:rgb(105,142,61);fill-rule:nonzero;"/>
                <path d="M1730.3,426.303C1680.32,416.708 1639.87,455.815 1622.17,476.859L1622.17,411.182C1627.76,400.009 1658.13,345.173 1714.17,347.062C1716.8,347.149 1719.08,345.267 1719.32,342.646L1719.33,342.482C1719.57,339.744 1717.51,337.273 1714.77,337.173C1667.31,335.431 1636.74,369.828 1622.17,391.689L1622.17,330.46C1626.93,321.885 1647.79,287.485 1679.25,279.83C1681.66,279.245 1683.14,276.818 1682.75,274.37L1682.73,274.227C1682.27,271.365 1679.44,269.58 1676.63,270.275C1651.31,276.534 1632.7,297.124 1622.17,311.95L1622.17,213.794C1622.17,210.762 1619.71,208.312 1616.68,208.312C1613.66,208.312 1611.2,210.762 1611.2,213.794L1611.2,310.632C1600.52,295.934 1582.28,276.35 1557.69,270.275C1554.88,269.58 1552.05,271.365 1551.59,274.227L1551.57,274.37C1551.18,276.818 1552.67,279.245 1555.07,279.83C1584.83,287.074 1605.06,318.191 1611.2,328.796L1611.2,390.295C1596.29,368.395 1566.02,335.468 1519.55,337.173C1516.81,337.273 1514.75,339.744 1514.99,342.482L1515,342.646C1515.24,345.267 1517.52,347.149 1520.15,347.062C1573.6,345.26 1603.68,395.025 1611.2,409.34L1611.2,475.737C1593.04,454.462 1553.13,416.879 1504.02,426.303C1501.32,426.82 1499.67,429.599 1500.35,432.264L1500.39,432.424C1501.03,434.968 1503.57,436.463 1506.16,435.984C1558.28,426.293 1601,478.053 1611.2,491.666L1611.2,559.968C1596.29,538.068 1566.02,505.142 1519.55,506.847C1516.81,506.948 1514.75,509.418 1514.99,512.156L1515,512.319C1515.24,514.941 1517.52,516.823 1520.15,516.736C1573.6,514.934 1603.68,564.699 1611.2,579.014L1611.2,621.354C1600.89,607.266 1581.84,588.645 1553.57,589.685C1551.79,589.748 1550.44,591.36 1550.61,593.142L1550.61,593.249C1550.76,594.957 1552.24,596.184 1553.96,596.127C1585.11,595.077 1604.04,620.865 1611.2,632.998L1611.2,714.706L1622.17,714.706L1622.17,634.646C1628.49,623.403 1647.72,595.027 1680.36,596.127C1682.07,596.184 1683.56,594.957 1683.71,593.249L1683.72,593.142C1683.88,591.36 1682.54,589.748 1680.75,589.685C1651.61,588.612 1632.24,608.46 1622.17,622.668L1622.17,580.856C1627.76,569.684 1658.13,514.847 1714.17,516.736C1716.8,516.823 1719.08,514.941 1719.32,512.319L1719.33,512.156C1719.57,509.418 1717.51,506.948 1714.77,506.847C1667.31,505.105 1636.74,539.503 1622.17,561.362L1622.17,492.947C1630.34,481.757 1674.21,425.955 1728.17,435.984C1730.76,436.463 1733.29,434.968 1733.94,432.424L1733.97,432.264C1734.65,429.599 1733.01,426.82 1730.3,426.303Z" style="fill:rgb(131,158,60);fill-rule:nonzero;"/>
            </g>
        </g>
    </g>
</svg>
