<?xml version="1.0" encoding="UTF-8" standalone="no"?>
<!DOCTYPE svg PUBLIC "-//W3C//DTD SVG 1.1//EN" "http://www.w3.org/Graphics/SVG/1.1/DTD/svg11.dtd">
<svg width="100%" height="100%" viewBox="0 0 651 595" version="1.1" xmlns="http://www.w3.org/2000/svg" xmlns:xlink="http://www.w3.org/1999/xlink" xml:space="preserve" xmlns:serif="http://www.serif.com/" style="fill-rule:evenodd;clip-rule:evenodd;stroke-linejoin:round;stroke-miterlimit:2;">
    <g transform="matrix(1,0,0,1,-2538.35,-2561.34)">
        <g>
            <g>
                <path d="M2760.12,3046.52C2760.12,3046.52 2642.7,2995.2 2589.07,2941.9C2504.48,2857.82 2551.24,2744.77 2551.24,2744.77L2835.6,2903.98L2760.12,3046.52Z" style="fill:rgb(142,58,126);fill-rule:nonzero;"/>
                <path d="M2966.58,3046.52C2966.58,3046.52 3084,2995.2 3137.63,2941.9C3222.21,2857.82 3175.46,2744.77 3175.46,2744.77L2891.1,2903.98L2966.58,3046.52Z" style="fill:rgb(142,58,126);fill-rule:nonzero;"/>
                <path d="M2862.65,3087.75C2862.65,3087.75 2734.79,3096.22 2662.64,3073.57C2548.86,3037.84 2538.35,2915.96 2538.35,2915.96L2864.08,2926.47L2862.65,3087.75Z" style="fill:rgb(169,73,146);fill-rule:nonzero;"/>
                <path d="M2864.05,3087.75C2864.05,3087.75 2991.91,3096.22 3064.05,3073.57C3177.84,3037.84 3188.35,2915.96 3188.35,2915.96L2862.62,2926.47L2864.05,3087.75Z" style="fill:rgb(169,73,146);fill-rule:nonzero;"/>
                <path d="M2910.3,3112.34C2910.3,3136.13 2891.02,3155.42 2867.23,3155.42C2843.44,3155.42 2824.15,3136.13 2824.15,3112.34L2824.15,3063.16C2824.15,3039.37 2843.44,3020.08 2867.23,3020.08C2891.02,3020.08 2910.3,3039.37 2910.3,3063.16L2910.3,3112.34Z" style="fill:rgb(134,73,113);fill-rule:nonzero;"/>
                <path d="M3125.79,2824.55C3125.79,2961.23 3021.64,3073.57 2888.43,3086.49C2879.92,3087.31 2871.34,3087.75 2862.65,3087.75L2862.65,2561.34C3007.96,2561.34 3125.79,2679.17 3125.79,2824.55Z" style="fill:rgb(127,24,74);fill-rule:nonzero;"/>
                <path d="M2862.65,2561.34L2862.65,3087.75C2855.71,3087.75 2848.84,3087.5 2842.03,3086.93C2706.3,3076.4 2599.44,2962.99 2599.44,2824.55C2599.44,2679.17 2717.27,2561.34 2862.65,2561.34Z" style="fill:rgb(140,35,93);fill-rule:nonzero;"/>
                <path d="M3056,2880.97C2979.46,2921.07 2916.67,2991.48 2888.68,3026.09L2888.68,3083.21C2888.68,3084.35 2888.62,3085.42 2888.43,3086.49C2879.92,3087.31 2871.34,3087.75 2862.65,3087.75C2855.71,3087.75 2848.84,3087.5 2842.03,3086.93C2841.78,3085.54 2841.65,3084.09 2841.65,3082.65L2841.65,3032.4C2816.75,3000.82 2750.81,2923.65 2669.35,2880.97C2663.49,2877.88 2660.97,2870.82 2663.81,2864.83L2664,2864.39C2667.08,2857.89 2674.97,2855.44 2681.33,2858.78C2750.81,2895.22 2808.3,2953.72 2841.65,2992.55L2841.65,2924.72C2818.83,2898.31 2746.33,2820.07 2673.39,2801.79C2667.02,2800.21 2662.92,2794.09 2664,2787.66L2664,2787.54C2665.19,2780.35 2672.19,2775.5 2679.32,2777.26C2744.94,2793.65 2807.36,2850.77 2841.65,2887.02L2841.65,2827.32C2819.96,2806.52 2758.81,2751.35 2704.6,2735.84C2698.29,2734.08 2694.32,2727.96 2695.45,2721.53L2695.52,2721.41C2696.78,2714.22 2703.97,2709.49 2711.03,2711.51C2760.01,2725.44 2811.52,2766.04 2841.65,2792.96L2841.65,2747.7C2827.21,2732.19 2794.31,2699.34 2762.16,2684.65C2756.29,2681.94 2753.14,2675.45 2755.16,2669.27L2755.16,2669.15C2757.43,2662.15 2765.31,2658.37 2771.99,2661.39C2798.03,2673.18 2823.43,2694.36 2841.65,2711.76L2841.65,2629.81C2841.65,2616.37 2852.87,2605.6 2866.43,2606.35C2879.16,2606.99 2888.68,2618.39 2888.68,2631.13L2888.68,2707.03C2906.33,2690.83 2929.34,2672.42 2952.86,2661.64C2959.73,2658.49 2967.86,2661.96 2970.2,2669.21C2972.22,2675.38 2969.06,2681.94 2963.14,2684.65C2934.26,2697.83 2904.88,2725.57 2888.68,2742.4L2888.68,2788.55C2919.32,2761.82 2967.86,2724.75 3014.2,2711.51C3021.26,2709.49 3028.57,2714.22 3029.83,2721.47L3029.83,2721.53C3031.04,2727.9 3027.13,2734.08 3020.82,2735.84C2970.26,2750.28 2913.77,2799.08 2888.68,2822.59L2888.68,2881.79C2923.86,2845.54 2983.43,2792.96 3045.91,2777.32C3046.92,2777.07 3047.93,2776.95 3048.88,2776.95C3054.93,2776.95 3060.35,2781.36 3061.36,2787.6C3062.37,2794.09 3058.33,2800.21 3052.03,2801.79C2983.68,2818.87 2915.85,2888.47 2888.68,2919.05L2888.68,2986.75C2922.66,2948.11 2977.89,2893.51 3044.02,2858.78C3050.39,2855.44 3058.27,2857.96 3061.36,2864.45C3064.26,2870.5 3061.92,2877.88 3056,2880.97Z" style="fill:rgb(169,73,146);fill-rule:nonzero;"/>
            </g>
        </g>
    </g>
</svg>
