<?xml version="1.0" encoding="UTF-8" standalone="no"?>
<!DOCTYPE svg PUBLIC "-//W3C//DTD SVG 1.1//EN" "http://www.w3.org/Graphics/SVG/1.1/DTD/svg11.dtd">
<svg width="100%" height="100%" viewBox="0 0 650 819" version="1.1" xmlns="http://www.w3.org/2000/svg" xmlns:xlink="http://www.w3.org/1999/xlink" xml:space="preserve" xmlns:serif="http://www.serif.com/" style="fill-rule:evenodd;clip-rule:evenodd;stroke-linejoin:round;stroke-miterlimit:2;">
    <g transform="matrix(1,0,0,1,-5013.35,-1231.1)">
        <g>
            <g>
                <path d="M5247.45,1360.34C5262.68,1427.32 5230.34,1462.92 5182.9,1473.71C5135.49,1484.49 5090.94,1466.37 5075.71,1399.39C5060.47,1332.4 5127.74,1231.1 5127.74,1231.1C5127.74,1231.1 5232.22,1293.35 5247.45,1360.34Z" style="fill:rgb(58,157,71);fill-rule:nonzero;"/>
                <path d="M5254.18,1302.21C5254.18,1302.21 5197.79,1335.02 5161.34,1378.84C5109.53,1355.1 5044.5,1349.88 5044.5,1349.88C5044.5,1349.88 5028.92,1470.47 5072.21,1523.84C5114.68,1576.19 5161.64,1573.78 5199.06,1544.72C5245.37,1554.74 5288.76,1536.61 5304.41,1471.04C5320.37,1404.2 5254.18,1302.21 5254.18,1302.21Z" style="fill:rgb(50,177,74);fill-rule:nonzero;"/>
                <path d="M5245.1,1401.3C5209.09,1358.37 5155.18,1326.25 5155.18,1326.25C5155.18,1326.25 5121.56,1376.91 5107.26,1430.27C5060.11,1437.07 5013.35,1460.23 5013.35,1460.23C5013.35,1460.23 5038.13,1541.37 5090.92,1574.35C5117.14,1590.74 5140.23,1594.75 5159.68,1590.08L5222.08,1864.54C5228.02,1890.62 5253.99,1906.96 5280.08,1901.03C5306.17,1895.09 5322.51,1869.13 5316.58,1843.05L5254.12,1568.37C5274.92,1565.11 5295.32,1551.58 5312.88,1523.88C5346.21,1471.32 5335.37,1395.74 5335.37,1395.74C5335.37,1395.74 5288.81,1392.05 5245.1,1401.3Z" style="fill:rgb(108,189,69);fill-rule:nonzero;"/>
                <path d="M5606.84,1568.74C5584.85,1633.82 5538.69,1647.29 5492.6,1631.73C5446.53,1616.17 5418,1577.46 5439.98,1512.39C5461.95,1447.29 5572.22,1396.02 5572.22,1396.02C5572.22,1396.02 5628.81,1503.64 5606.84,1568.74Z" style="fill:rgb(58,157,71);fill-rule:nonzero;"/>
                <path d="M5642.94,1522.66C5642.94,1522.66 5577.71,1521.22 5523.74,1539.56C5491.95,1492.26 5439.21,1453.86 5439.21,1453.86C5439.21,1453.86 5362.96,1548.59 5372.03,1616.69C5380.9,1683.52 5422.21,1705.99 5469.31,1700.74C5503.58,1733.47 5550.04,1740.65 5597.63,1692.88C5646.13,1644.21 5642.94,1522.66 5642.94,1522.66Z" style="fill:rgb(50,177,74);fill-rule:nonzero;"/>
                <path d="M5583.45,1602.45C5575.14,1547.04 5545.94,1491.49 5545.94,1491.49C5545.94,1491.49 5490.81,1517.14 5450.75,1555.18C5407,1536.38 5355.02,1531.71 5355.02,1531.71C5355.02,1531.71 5333.79,1613.86 5361.6,1669.55C5375.42,1697.21 5393.02,1712.7 5412.04,1718.84L5321.99,1985.54C5313.43,2010.86 5327.03,2038.36 5352.38,2046.93C5377.74,2055.49 5405.23,2041.9 5413.79,2016.53L5503.94,1749.63C5523.36,1757.73 5547.84,1756.84 5577.26,1742.39C5633.14,1714.96 5663.35,1644.83 5663.35,1644.83C5663.35,1644.83 5625.55,1617.39 5583.45,1602.45Z" style="fill:rgb(108,189,69);fill-rule:nonzero;"/>
            </g>
        </g>
    </g>
</svg>
