<?xml version="1.0" encoding="UTF-8" standalone="no"?>
<!DOCTYPE svg PUBLIC "-//W3C//DTD SVG 1.1//EN" "http://www.w3.org/Graphics/SVG/1.1/DTD/svg11.dtd">
<svg width="100%" height="100%" viewBox="0 0 518 710" version="1.1" xmlns="http://www.w3.org/2000/svg" xmlns:xlink="http://www.w3.org/1999/xlink" xml:space="preserve" xmlns:serif="http://www.serif.com/" style="fill-rule:evenodd;clip-rule:evenodd;stroke-linejoin:round;stroke-miterlimit:2;">
    <g transform="matrix(1,0,0,1,-2603.23,-3768.84)">
        <g>
            <g>
                <path d="M2625.89,4478.84L2603.23,4478.84L2603.23,3942.42C2603.23,3892.07 2644.04,3851.25 2694.41,3851.25C2744.76,3851.25 2785.59,3892.07 2785.59,3942.42L2785.59,4319.14C2785.59,4407.35 2714.08,4478.84 2625.89,4478.84Z" style="fill:rgb(105,145,62);fill-rule:nonzero;"/>
                <path d="M2760.43,4031.8C2760.43,4057.99 2739.2,4079.23 2713.02,4079.23L2675.82,4079.23C2649.63,4079.23 2628.39,4057.99 2628.39,4031.8C2628.39,4005.62 2649.63,3984.38 2675.82,3984.38L2713.02,3984.38C2739.2,3984.38 2760.43,4005.62 2760.43,4031.8Z" style="fill:rgb(150,190,73);fill-rule:nonzero;"/>
                <path d="M2760.43,4154.55C2760.43,4180.74 2739.2,4201.96 2713.02,4201.96L2675.82,4201.96C2649.63,4201.96 2628.39,4180.74 2628.39,4154.55C2628.39,4128.36 2649.63,4107.12 2675.82,4107.12L2713.02,4107.12C2739.2,4107.12 2760.43,4128.36 2760.43,4154.55Z" style="fill:rgb(150,190,73);fill-rule:nonzero;"/>
                <path d="M2760.43,4277.28C2760.43,4303.48 2739.2,4324.71 2713.02,4324.71L2675.82,4324.71C2649.63,4324.71 2628.39,4303.48 2628.39,4277.28C2628.39,4251.09 2649.63,4229.87 2675.82,4229.87L2713.02,4229.87C2739.2,4229.87 2760.43,4251.09 2760.43,4277.28Z" style="fill:rgb(150,190,73);fill-rule:nonzero;"/>
                <path d="M2780.52,3890.46C2768.15,3854.76 2734.3,3829.09 2694.41,3829.09C2654.51,3829.09 2620.68,3854.76 2608.31,3890.46L2780.52,3890.46Z" style="fill:rgb(71,95,43);fill-rule:nonzero;"/>
                <path d="M2709.04,3833.23C2709.04,3841.32 2702.49,3847.87 2694.41,3847.87C2686.32,3847.87 2679.77,3841.32 2679.77,3833.23L2679.77,3783.48C2679.77,3775.39 2686.32,3768.84 2694.41,3768.84C2702.49,3768.84 2709.04,3775.39 2709.04,3783.48L2709.04,3833.23Z" style="fill:rgb(71,95,43);fill-rule:nonzero;"/>
                <path d="M3041.49,4426.72L3021.89,4438.09L2752.8,3974.05C2727.54,3930.47 2742.38,3874.69 2785.94,3849.43C2829.51,3824.17 2885.3,3839 2910.56,3882.57L3099.54,4208.46C3143.78,4284.75 3117.77,4382.48 3041.49,4426.72Z" style="fill:rgb(119,170,66);fill-rule:nonzero;"/>
                <path d="M2933.64,3972.5C2946.78,3995.17 2939.06,4024.19 2916.39,4037.32L2884.21,4055.98C2861.56,4069.11 2832.54,4061.4 2819.4,4038.74C2806.27,4016.09 2813.98,3987.06 2836.65,3973.93L2868.82,3955.27C2891.48,3942.13 2920.49,3949.85 2933.64,3972.5Z" style="fill:rgb(150,190,73);fill-rule:nonzero;"/>
                <path d="M2995.21,4078.69C3008.34,4101.34 3000.63,4130.36 2977.97,4143.5L2945.79,4162.16C2923.13,4175.3 2894.12,4167.58 2880.97,4144.93C2867.84,4122.26 2875.56,4093.24 2898.21,4080.11L2930.4,4061.45C2953.05,4048.32 2982.06,4056.03 2995.21,4078.69Z" style="fill:rgb(150,190,73);fill-rule:nonzero;"/>
                <path d="M3056.78,4184.86C3069.91,4207.53 3062.21,4236.55 3039.54,4249.68L3007.36,4268.34C2984.71,4281.48 2955.69,4273.76 2942.55,4251.1C2929.41,4228.45 2937.13,4199.44 2959.79,4186.29L2991.97,4167.64C3014.62,4154.49 3043.64,4162.22 3056.78,4184.86Z" style="fill:rgb(150,190,73);fill-rule:nonzero;"/>
                <path d="M2880.1,3840.16C2851.48,3815.48 2809.34,3810.25 2774.82,3830.26C2740.31,3850.28 2723.92,3889.46 2731.14,3926.54L2880.1,3840.16Z" style="fill:rgb(85,120,55);fill-rule:nonzero;"/>
                <path d="M2789.56,3826.51C2793.63,3833.49 2791.24,3842.45 2784.24,3846.51C2777.25,3850.56 2768.29,3848.18 2764.23,3841.19L2739.27,3798.15C2735.22,3791.15 2737.6,3782.2 2744.6,3778.15C2751.59,3774.09 2760.55,3776.47 2764.61,3783.46L2789.56,3826.51Z" style="fill:rgb(85,120,55);fill-rule:nonzero;"/>
            </g>
        </g>
    </g>
</svg>
