<?xml version="1.0" encoding="UTF-8" standalone="no"?>
<!DOCTYPE svg PUBLIC "-//W3C//DTD SVG 1.1//EN" "http://www.w3.org/Graphics/SVG/1.1/DTD/svg11.dtd">
<svg width="100%" height="100%" viewBox="0 0 651 692" version="1.1" xmlns="http://www.w3.org/2000/svg" xmlns:xlink="http://www.w3.org/1999/xlink" xml:space="preserve" xmlns:serif="http://www.serif.com/" style="fill-rule:evenodd;clip-rule:evenodd;stroke-linejoin:round;stroke-miterlimit:2;">
    <g transform="matrix(1,0,0,1,-3775.85,-1294.42)">
        <g>
            <g>
                <path d="M4211.18,1675.39L4152.22,1652.11L4100.85,1782.18L4049.48,1652.11L3990.51,1675.39L4037.53,1794.48L4037.53,1986.18L4164.34,1986.18L4164.34,1794.03L4211.18,1675.39Z" style="fill:rgb(147,190,67);fill-rule:nonzero;"/>
                <path d="M4086.64,1559.04C4086.63,1549.71 4082.15,1541.51 4075.31,1536.22C4080.18,1529.07 4081.91,1519.88 4079.04,1511.02C4076.15,1502.15 4069.35,1495.74 4061.2,1492.82C4063.63,1484.51 4062.44,1475.23 4056.96,1467.7C4051.47,1460.16 4043.03,1456.16 4034.38,1455.9C4034.12,1447.25 4030.12,1438.79 4022.58,1433.32C4015.03,1427.84 4005.77,1426.65 3997.46,1429.08C3994.54,1420.93 3988.12,1414.13 3979.26,1411.25C3970.39,1408.37 3961.19,1410.1 3954.05,1414.98C3948.76,1408.13 3940.55,1403.65 3931.24,1403.65C3921.91,1403.65 3913.7,1408.13 3908.41,1414.98C3901.27,1410.11 3892.08,1408.38 3883.22,1411.26C3874.35,1414.14 3867.94,1420.94 3865.01,1429.09C3856.7,1426.67 3847.43,1427.86 3839.89,1433.33C3832.36,1438.82 3828.36,1447.26 3828.1,1455.92C3819.45,1456.17 3811,1460.17 3805.52,1467.71C3800.04,1475.25 3798.85,1484.53 3801.28,1492.83C3793.13,1495.76 3786.33,1502.17 3783.45,1511.03C3780.56,1519.9 3782.3,1529.09 3787.17,1536.24C3780.33,1541.53 3775.85,1549.73 3775.85,1559.05C3775.84,1568.38 3780.33,1576.58 3787.17,1581.87C3782.31,1589.03 3780.58,1598.21 3783.46,1607.07C3786.33,1615.94 3793.14,1622.35 3801.29,1625.28C3798.86,1633.58 3800.05,1642.85 3805.53,1650.39C3811.01,1657.94 3819.46,1661.94 3828.11,1662.19C3828.37,1670.84 3832.38,1679.29 3839.92,1684.76C3847.45,1690.24 3856.73,1691.44 3865.03,1689.01C3867.96,1697.16 3874.37,1703.95 3883.24,1706.84C3892.1,1709.72 3901.28,1707.98 3908.43,1703.11C3913.73,1709.96 3921.93,1714.44 3931.25,1714.44C3940.58,1714.44 3948.78,1709.96 3954.07,1703.11C3961.22,1707.98 3970.41,1709.71 3979.27,1706.84C3988.15,1703.95 3994.56,1697.15 3997.47,1689C4005.78,1691.43 4015.05,1690.23 4022.59,1684.76C4030.14,1679.28 4034.13,1670.83 4034.39,1662.18C4043.04,1661.91 4051.49,1657.92 4056.97,1650.38C4062.44,1642.84 4063.64,1633.56 4061.21,1625.26C4069.36,1622.34 4076.16,1615.92 4079.04,1607.06C4081.92,1598.19 4080.19,1589 4075.31,1581.85C4082.16,1576.55 4086.64,1568.36 4086.64,1559.04Z" style="fill:rgb(91,128,57);fill-rule:nonzero;"/>
                <path d="M4425.85,1559.04C4425.84,1549.71 4421.36,1541.51 4414.52,1536.22C4419.39,1529.07 4421.12,1519.88 4418.25,1511.02C4415.36,1502.15 4408.56,1495.74 4400.41,1492.82C4402.83,1484.51 4401.65,1475.23 4396.17,1467.7C4390.69,1460.16 4382.24,1456.16 4373.59,1455.9C4373.33,1447.25 4369.33,1438.79 4361.79,1433.32C4354.25,1427.84 4344.98,1426.65 4336.67,1429.08C4333.76,1420.93 4327.33,1414.13 4318.47,1411.25C4309.6,1408.37 4300.4,1410.1 4293.26,1414.98C4287.97,1408.13 4279.77,1403.65 4270.45,1403.65C4261.12,1403.65 4252.91,1408.13 4247.62,1414.98C4240.48,1410.11 4231.29,1408.38 4222.43,1411.26C4213.56,1414.14 4207.15,1420.94 4204.22,1429.09C4195.91,1426.67 4186.64,1427.86 4179.11,1433.33C4171.57,1438.82 4167.57,1447.26 4167.31,1455.92C4158.66,1456.17 4150.21,1460.17 4144.73,1467.71C4139.25,1475.25 4138.06,1484.53 4140.49,1492.83C4132.34,1495.76 4125.55,1502.17 4122.66,1511.03C4119.77,1519.9 4121.51,1529.09 4126.38,1536.24C4119.54,1541.53 4115.06,1549.73 4115.06,1559.05C4115.05,1568.38 4119.54,1576.58 4126.38,1581.87C4121.52,1589.03 4119.79,1598.21 4122.67,1607.07C4125.55,1615.94 4132.35,1622.35 4140.5,1625.28C4138.07,1633.58 4139.26,1642.85 4144.74,1650.39C4150.22,1657.94 4158.67,1661.94 4167.32,1662.19C4167.58,1670.84 4171.59,1679.29 4179.13,1684.76C4186.66,1690.24 4195.94,1691.44 4204.24,1689.01C4207.17,1697.16 4213.58,1703.95 4222.45,1706.84C4231.31,1709.72 4240.49,1707.98 4247.64,1703.11C4252.94,1709.96 4261.14,1714.44 4270.46,1714.44C4279.79,1714.44 4287.99,1709.96 4293.28,1703.11C4300.43,1707.98 4309.62,1709.71 4318.48,1706.84C4327.36,1703.95 4333.77,1697.15 4336.68,1689C4344.99,1691.43 4354.26,1690.23 4361.8,1684.76C4369.35,1679.28 4373.34,1670.83 4373.6,1662.18C4382.25,1661.91 4390.7,1657.92 4396.18,1650.38C4401.65,1642.84 4402.85,1633.56 4400.42,1625.26C4408.57,1622.34 4415.37,1615.92 4418.25,1607.06C4421.13,1598.19 4419.4,1589 4414.53,1581.85C4421.37,1576.55 4425.85,1568.36 4425.85,1559.04Z" style="fill:rgb(91,128,57);fill-rule:nonzero;"/>
                <path d="M4295.8,1489.35C4295.79,1477.66 4290.16,1467.36 4281.58,1460.72C4287.69,1451.75 4289.87,1440.23 4286.25,1429.11C4282.63,1417.99 4274.1,1409.94 4263.89,1406.28C4266.93,1395.85 4265.44,1384.22 4258.56,1374.76C4251.69,1365.3 4241.08,1360.29 4230.23,1359.96C4229.91,1349.11 4224.88,1338.51 4215.43,1331.64C4205.96,1324.76 4194.33,1323.27 4183.91,1326.31C4180.25,1316.09 4172.2,1307.56 4161.08,1303.95C4149.95,1300.33 4138.42,1302.51 4129.46,1308.63C4122.82,1300.04 4112.53,1294.42 4100.83,1294.42C4089.13,1294.42 4078.85,1300.04 4072.21,1308.63C4063.24,1302.52 4051.72,1300.35 4040.6,1303.96C4029.47,1307.58 4021.42,1316.11 4017.76,1326.33C4007.34,1323.29 3995.71,1324.78 3986.25,1331.66C3976.79,1338.53 3971.77,1349.13 3971.45,1359.98C3960.6,1360.31 3950,1365.32 3943.12,1374.79C3936.25,1384.25 3934.75,1395.88 3937.8,1406.3C3927.58,1409.96 3919.05,1418.01 3915.44,1429.13C3911.82,1440.25 3913.99,1451.78 3920.11,1460.75C3911.53,1467.39 3905.9,1477.68 3905.9,1489.37C3905.9,1501.07 3911.53,1511.36 3920.12,1518C3914,1526.97 3911.83,1538.49 3915.45,1549.61C3919.06,1560.74 3927.59,1568.79 3937.81,1572.45C3934.77,1582.87 3936.27,1594.5 3943.14,1603.96C3950.01,1613.42 3960.61,1618.44 3971.47,1618.76C3971.79,1629.61 3976.81,1640.21 3986.27,1647.08C3995.73,1653.96 4007.36,1655.45 4017.79,1652.41C4021.45,1662.63 4029.5,1671.15 4040.62,1674.77C4051.74,1678.38 4063.26,1676.21 4072.23,1670.1C4078.88,1678.69 4089.16,1684.31 4100.85,1684.31C4112.55,1684.31 4122.85,1678.68 4129.49,1670.09C4138.45,1676.21 4149.98,1678.38 4161.1,1674.77C4172.22,1671.15 4180.27,1662.62 4183.94,1652.4C4194.36,1655.44 4205.99,1653.94 4215.44,1647.07C4224.91,1640.2 4229.92,1629.6 4230.25,1618.74C4241.1,1618.42 4251.7,1613.4 4258.57,1603.94C4265.44,1594.48 4266.94,1582.84 4263.89,1572.42C4274.12,1568.76 4282.65,1560.71 4286.26,1549.6C4289.87,1538.47 4287.7,1526.95 4281.58,1517.97C4290.17,1511.34 4295.8,1501.04 4295.8,1489.35Z" style="fill:rgb(119,170,66);fill-rule:nonzero;"/>
            </g>
        </g>
    </g>
</svg>
