<?xml version="1.0" encoding="UTF-8" standalone="no"?>
<!DOCTYPE svg PUBLIC "-//W3C//DTD SVG 1.1//EN" "http://www.w3.org/Graphics/SVG/1.1/DTD/svg11.dtd">
<svg width="100%" height="100%" viewBox="0 0 650 595" version="1.1" xmlns="http://www.w3.org/2000/svg" xmlns:xlink="http://www.w3.org/1999/xlink" xml:space="preserve" xmlns:serif="http://www.serif.com/" style="fill-rule:evenodd;clip-rule:evenodd;stroke-linejoin:round;stroke-miterlimit:2;">
    <g transform="matrix(1,0,0,1,-2538.35,-1343.26)">
        <g>
            <g>
                <path d="M2862.65,1869.67C2862.65,1869.67 2734.78,1878.14 2662.64,1855.49C2548.86,1819.76 2538.35,1697.88 2538.35,1697.88L2864.08,1708.39L2862.65,1869.67Z" style="fill:rgb(130,167,63);fill-rule:nonzero;"/>
                <path d="M2864.05,1869.67C2864.05,1869.67 2991.91,1878.14 3064.05,1855.49C3177.84,1819.76 3188.35,1697.88 3188.35,1697.88L2862.62,1708.39L2864.05,1869.67Z" style="fill:rgb(130,167,63);fill-rule:nonzero;"/>
                <path d="M2910.31,1894.26C2910.31,1918.05 2891.02,1937.34 2867.23,1937.34C2843.44,1937.34 2824.15,1918.05 2824.15,1894.26L2824.15,1845.08C2824.15,1821.29 2843.44,1802 2867.23,1802C2891.02,1802 2910.31,1821.29 2910.31,1845.08L2910.31,1894.26Z" style="fill:rgb(209,215,130);fill-rule:nonzero;"/>
                <path d="M3125.79,1606.46C3125.79,1743.14 3021.64,1855.49 2888.43,1868.41C2879.92,1869.23 2871.34,1869.67 2862.65,1869.67L2862.65,1343.26C3007.96,1343.26 3125.79,1461.09 3125.79,1606.46Z" style="fill:rgb(79,103,47);fill-rule:nonzero;"/>
                <path d="M2862.65,1343.26L2862.65,1869.67C2855.71,1869.67 2848.84,1869.42 2842.03,1868.85C2706.3,1858.32 2599.44,1744.91 2599.44,1606.46C2599.44,1461.09 2717.27,1343.26 2862.65,1343.26Z" style="fill:rgb(105,142,61);fill-rule:nonzero;"/>
                <path d="M3056,1662.89C2979.46,1702.98 2916.67,1773.4 2888.68,1808.02L2888.68,1865.13C2888.68,1866.27 2888.62,1867.34 2888.43,1868.41C2879.92,1869.23 2871.34,1869.67 2862.65,1869.67C2855.71,1869.67 2848.84,1869.42 2842.03,1868.85C2841.78,1867.46 2841.65,1866.01 2841.65,1864.56L2841.65,1814.32C2816.75,1782.73 2750.81,1705.57 2669.35,1662.89C2663.49,1659.8 2660.97,1652.74 2663.81,1646.75L2664,1646.31C2667.08,1639.82 2674.96,1637.36 2681.33,1640.7C2750.81,1677.14 2808.3,1735.64 2841.65,1774.48L2841.65,1706.64C2818.83,1680.23 2746.33,1601.99 2673.39,1583.71C2667.02,1582.13 2662.92,1576.01 2664,1569.58L2664,1569.46C2665.19,1562.27 2672.19,1557.42 2679.31,1559.18C2744.94,1575.57 2807.36,1632.69 2841.65,1668.94L2841.65,1609.24C2819.96,1588.44 2758.81,1533.27 2704.6,1517.76C2698.29,1516 2694.32,1509.88 2695.45,1503.45L2695.52,1503.33C2696.78,1496.14 2703.96,1491.41 2711.03,1493.43C2760.01,1507.36 2811.52,1547.96 2841.65,1574.88L2841.65,1529.61C2827.21,1514.11 2794.31,1481.26 2762.15,1466.57C2756.29,1463.86 2753.14,1457.37 2755.16,1451.19L2755.16,1451.06C2757.43,1444.07 2765.31,1440.28 2771.99,1443.31C2798.02,1455.1 2823.43,1476.28 2841.65,1493.68L2841.65,1411.72C2841.65,1398.3 2852.87,1387.52 2866.43,1388.27C2879.16,1388.9 2888.68,1400.31 2888.68,1413.05L2888.68,1488.95C2906.33,1472.75 2929.34,1454.34 2952.86,1443.56C2959.73,1440.41 2967.86,1443.88 2970.2,1451.13C2972.22,1457.3 2969.06,1463.86 2963.14,1466.57C2934.26,1479.75 2904.88,1507.49 2888.68,1524.32L2888.68,1570.47C2919.32,1543.74 2967.86,1506.67 3014.21,1493.43C3021.26,1491.41 3028.57,1496.14 3029.84,1503.39L3029.84,1503.45C3031.04,1509.82 3027.13,1516 3020.82,1517.76C2970.26,1532.2 2913.77,1581 2888.68,1604.51L2888.68,1663.71C2923.86,1627.46 2983.43,1574.88 3045.91,1559.24C3046.92,1558.99 3047.93,1558.87 3048.88,1558.87C3054.93,1558.87 3060.35,1563.28 3061.36,1569.52C3062.37,1576.01 3058.33,1582.13 3052.03,1583.71C2983.69,1600.79 2915.85,1670.39 2888.68,1700.97L2888.68,1768.68C2922.66,1730.03 2977.89,1675.43 3044.02,1640.7C3050.39,1637.36 3058.27,1639.88 3061.36,1646.37C3064.26,1652.42 3061.92,1659.8 3056,1662.89Z" style="fill:rgb(147,178,61);fill-rule:nonzero;"/>
            </g>
        </g>
    </g>
</svg>
