<?xml version="1.0" encoding="UTF-8" standalone="no"?>
<!DOCTYPE svg PUBLIC "-//W3C//DTD SVG 1.1//EN" "http://www.w3.org/Graphics/SVG/1.1/DTD/svg11.dtd">
<svg width="100%" height="100%" viewBox="0 0 650 724" version="1.1" xmlns="http://www.w3.org/2000/svg" xmlns:xlink="http://www.w3.org/1999/xlink" xml:space="preserve" xmlns:serif="http://www.serif.com/" style="fill-rule:evenodd;clip-rule:evenodd;stroke-linejoin:round;stroke-miterlimit:2;">
    <g transform="matrix(1,0,0,1,-3775.85,-0.650117)">
        <g>
            <g>
                <path d="M4270.55,227.834C4274.49,231.614 4279.54,233.15 4281.83,231.266L4424.73,113.527C4427.02,111.642 4425.68,107.049 4421.74,103.27C4417.8,99.488 4412.76,97.952 4410.47,99.837L4267.56,217.576C4265.28,219.46 4266.62,224.052 4270.55,227.834Z" style="fill:rgb(59,180,74);fill-rule:nonzero;"/>
                <path d="M4245.16,209.337C4249.19,213.03 4254.18,214.364 4256.29,212.315L4395.75,77.044C4397.86,74.995 4396.3,70.34 4392.27,66.646C4388.23,62.952 4383.25,61.618 4381.14,63.667L4241.68,198.938C4239.56,200.987 4241.12,205.642 4245.16,209.337Z" style="fill:rgb(59,180,74);fill-rule:nonzero;"/>
                <path d="M4223.57,190.593C4227.75,194.129 4232.61,195.118 4234.42,192.805L4354.08,40.109C4355.89,37.796 4353.97,33.055 4349.8,29.52C4345.62,25.986 4340.76,24.995 4338.95,27.308L4219.29,180.005C4217.47,182.318 4219.39,187.059 4223.57,190.593Z" style="fill:rgb(141,197,64);fill-rule:nonzero;"/>
                <path d="M4203.11,169.136C4207.37,172.554 4212.13,173.31 4213.73,170.827L4314.74,14.487C4316.35,12.002 4314.19,7.219 4309.93,3.802C4305.67,0.385 4300.91,-0.371 4299.31,2.113L4198.29,158.453C4196.69,160.937 4198.84,165.72 4203.11,169.136Z" style="fill:rgb(141,197,64);fill-rule:nonzero;"/>
                <path d="M3787.97,715.074L3787.97,715.075C3801.42,726.807 3821.51,726.675 3834.8,714.769L4302.03,296.415C4327.69,273.434 4327.43,233.167 4301.46,210.525L4216.03,136.013C4190,113.306 4149.94,118.622 4130.73,147.333L3781.82,668.758C3771.93,683.545 3774.56,703.38 3787.97,715.074Z" style="fill:rgb(238,64,35);fill-rule:nonzero;"/>
                <path d="M4216.03,136.013L4260.64,174.918L3788.9,715.81C3788.59,715.567 3788.27,715.336 3787.97,715.075L3787.97,715.074C3774.56,703.38 3771.93,683.545 3781.82,668.758L4130.73,147.333C4149.94,118.622 4190,113.307 4216.03,136.013Z" style="fill:rgb(243,120,32);fill-rule:nonzero;"/>
                <path d="M4184.61,200.696C4204.24,217.813 4217.4,234.846 4214,238.741C4210.6,242.634 4191.94,231.915 4172.31,214.797C4152.69,197.681 4139.53,180.648 4142.93,176.754C4146.32,172.86 4164.99,183.58 4184.61,200.696Z" style="fill:rgb(238,64,35);fill-rule:nonzero;"/>
                <path d="M4094.22,337.365C4113.84,354.483 4127,371.516 4123.6,375.41C4120.21,379.304 4101.54,368.585 4081.92,351.467C4062.29,334.35 4049.13,317.317 4052.53,313.424C4055.93,309.529 4074.59,320.249 4094.22,337.365Z" style="fill:rgb(238,64,35);fill-rule:nonzero;"/>
                <path d="M4005.08,464.123C4024.7,481.239 4037.86,498.272 4034.46,502.167C4031.07,506.061 4012.4,495.341 3992.78,478.224C3973.15,461.107 3959.99,444.075 3963.39,440.18C3966.79,436.286 3985.45,447.005 4005.08,464.123Z" style="fill:rgb(238,64,35);fill-rule:nonzero;"/>
                <path d="M4169.29,290.004C4188.92,307.12 4202.07,324.154 4198.68,328.046C4195.28,331.942 4176.62,321.221 4156.99,304.105C4137.37,286.987 4124.21,269.954 4127.6,266.061C4131,262.167 4149.66,272.886 4169.29,290.004Z" style="fill:rgb(243,120,32);fill-rule:nonzero;"/>
                <path d="M4051.38,402.679C4071.01,419.796 4084.17,436.829 4080.77,440.724C4077.37,444.617 4058.71,433.899 4039.08,416.78C4019.46,399.664 4006.3,382.63 4009.7,378.737C4013.09,374.842 4031.76,385.562 4051.38,402.679Z" style="fill:rgb(243,120,32);fill-rule:nonzero;"/>
                <path d="M3944.64,520.126C3964.27,537.242 3977.42,554.275 3974.03,558.169C3970.63,562.063 3951.97,551.344 3932.34,534.227C3912.71,517.11 3899.56,500.077 3902.95,496.183C3906.35,492.288 3925.01,503.007 3944.64,520.126Z" style="fill:rgb(243,120,32);fill-rule:nonzero;"/>
            </g>
        </g>
    </g>
</svg>
