<?xml version="1.0" encoding="UTF-8" standalone="no"?>
<!DOCTYPE svg PUBLIC "-//W3C//DTD SVG 1.1//EN" "http://www.w3.org/Graphics/SVG/1.1/DTD/svg11.dtd">
<svg width="100%" height="100%" viewBox="0 0 651 529" version="1.1" xmlns="http://www.w3.org/2000/svg" xmlns:xlink="http://www.w3.org/1999/xlink" xml:space="preserve" xmlns:serif="http://www.serif.com/" style="fill-rule:evenodd;clip-rule:evenodd;stroke-linejoin:round;stroke-miterlimit:2;">
    <g transform="matrix(1,0,0,1,-63.3492,-1376.1)">
        <g>
            <g>
                <rect x="328.263" y="1859.63" width="117.398" height="44.87" style="fill:rgb(26,141,69);fill-rule:nonzero;"/>
                <path d="M704.27,1498.31C702.359,1489.16 645.631,1528.42 641.693,1532.95C640.793,1534 639.931,1535.05 639.144,1536.1C631,1522.14 634.107,1519.91 631.42,1488.34C630.356,1475.85 628.082,1461.15 616.497,1456.35C608.738,1453.16 600.378,1455.54 591.983,1457.91C583.99,1460.16 575.962,1462.42 568.391,1459.88C555.944,1455.72 551.182,1441.17 545.108,1429.51C537.347,1414.66 524.861,1402.29 509.901,1394.64C505.776,1406.94 497.566,1420.85 482.455,1418.86C458.832,1415.82 459.883,1377.17 434.575,1376.68C414.994,1376.28 417.326,1405.1 378.559,1405.89L378.532,1405.89L378.472,1405.87C365.4,1401.23 364.369,1398.4 358.906,1393.79C350.865,1387.01 342.87,1375.87 331.347,1376.1C306.07,1376.6 307.092,1415.24 283.463,1418.31C268.362,1420.27 260.153,1406.38 256.03,1394.06C241.085,1401.71 228.604,1414.08 220.831,1428.96C214.755,1440.59 209.998,1455.14 197.558,1459.32C189.985,1461.86 181.962,1459.6 173.971,1457.34C165.575,1454.97 157.214,1452.59 149.453,1455.79C125.778,1465.55 138.621,1501.09 134.594,1525.08C128.188,1518.99 74.3,1481.95 72.454,1490.85C66.659,1518.79 59.037,1555.38 66.357,1583.5C78.768,1631.18 103.164,1646.04 103.164,1646.04C109.238,1768.76 232.632,1866.8 384.145,1867.18C538.628,1867.18 658.888,1768.53 666.739,1649.11C666.739,1649.11 702.733,1620.26 710.345,1590.96C717.657,1562.84 710.045,1526.24 704.27,1498.31Z" style="fill:rgb(26,141,69);fill-rule:nonzero;"/>
                <path d="M600.849,1590.26C610.585,1505.67 522.318,1442.71 439.875,1472.69C426.172,1457.31 404.645,1447.35 380.358,1447.35C357.911,1447.35 337.822,1455.87 324.081,1469.29C244.201,1448.61 165.497,1508.31 172.234,1587.05C147.17,1605.4 131.021,1633.79 131.021,1665.75C131.021,1722.88 182.861,1769.94 246.804,1765.57C273.988,1806.22 323.618,1833.43 380.358,1833.43C437.798,1833.43 487.933,1805.53 514.89,1764.05C581.879,1776.09 643.755,1729.61 643.755,1668.19C643.755,1636.32 626.867,1608.11 600.849,1590.26Z" style="fill:rgb(187,191,205);fill-rule:nonzero;"/>
                <path d="M556.346,1581.95C562.493,1528.51 518.271,1482.97 462.702,1482.97C450.806,1482.97 439.469,1485.15 428.988,1488.95C406.18,1463.29 362.018,1461.96 337.212,1486.26C329.139,1484.18 320.675,1482.97 311.894,1482.97C257.364,1482.97 212.583,1526.32 217.124,1579.39C197.256,1593.91 184.451,1616.4 184.451,1641.72C184.451,1686.95 225.51,1724.2 276.103,1720.73C297.622,1752.91 336.908,1774.45 381.823,1774.45C427.292,1774.45 466.978,1752.37 488.317,1719.53C541.342,1729.06 590.326,1692.27 590.326,1643.65C590.326,1618.42 576.951,1596.08 556.346,1581.95Z" style="fill:rgb(218,210,175);fill-rule:nonzero;"/>
                <path d="M501.717,1576.04C505.876,1539.9 475.972,1509.06 438.351,1509.06C430.301,1509.06 422.63,1510.53 415.538,1513.11C408.2,1504.85 396.653,1499.5 383.623,1499.5C371.576,1499.5 360.797,1504.08 353.436,1511.29C347.973,1509.88 342.245,1509.06 336.304,1509.06C299.382,1509.06 269.104,1538.41 272.175,1574.3C258.73,1584.13 250.066,1599.35 250.066,1616.48C250.066,1647.03 277.813,1672.34 312.18,1669.94C326.748,1691.7 353.248,1706.3 383.623,1706.3C414.38,1706.3 441.178,1691.33 455.621,1669.13C491.545,1675.62 524.711,1650.69 524.711,1617.79C524.711,1600.71 515.659,1585.6 501.717,1576.04Z" style="fill:rgb(233,226,193);fill-rule:nonzero;"/>
                <path d="M696.405,1618.04C687.67,1689.37 622.403,1814.28 556.769,1844.46C529.001,1857.21 508.803,1857.82 386.545,1872.61C391.474,1832.32 411.106,1791.3 442.861,1759.94C459.027,1743.88 477.772,1731.23 498.352,1720.76C551.824,1693.44 605.407,1685.93 641.768,1666.58C665.541,1654 690.52,1626.16 696.405,1618.04Z" style="fill:rgb(36,174,75);fill-rule:nonzero;"/>
                <path d="M386.545,1872.61C384.607,1872.34 290.936,1861.12 288.91,1860.88C233.386,1854.24 194.392,1848.23 148.682,1782.55C115.987,1735.65 90.999,1681.24 84.1,1625.23C87.209,1631.63 109.094,1654.73 131.06,1666.4C131.172,1666.47 131.247,1666.55 131.36,1666.58C157.364,1680.45 185.607,1686.11 224.908,1699.95C268.844,1715.27 306.487,1733.66 336.939,1766.88C361.66,1793.79 377.654,1826.47 384.145,1858.22C385.032,1862.34 385.887,1867.34 386.545,1872.61Z" style="fill:rgb(36,174,75);fill-rule:nonzero;"/>
                <path d="M498.031,1760.97C492.019,1760.97 496.407,1750.81 505.09,1742.65C549.333,1701.08 598.821,1712.1 638.879,1684.5C612.065,1716.11 560.777,1713.5 529.455,1740.64C512.073,1755.71 502.359,1760.97 498.031,1760.97Z" style="fill:rgb(194,232,205);fill-rule:nonzero;"/>
                <path d="M298.967,1767.52C294.641,1767.52 284.926,1762.26 267.543,1747.19C236.22,1720.05 184.932,1722.66 158.119,1691.05C198.142,1718.63 247.706,1707.66 291.908,1749.2C300.59,1757.36 304.977,1767.52 298.967,1767.52Z" style="fill:rgb(194,232,205);fill-rule:nonzero;"/>
                <path d="M475.968,1555.19C475.968,1567.74 462.399,1577.91 445.661,1577.91C428.923,1577.91 415.353,1567.74 415.353,1555.19C415.353,1542.64 428.923,1532.47 445.661,1532.47C462.399,1532.47 475.968,1542.64 475.968,1555.19Z" style="fill:white;fill-rule:nonzero;"/>
            </g>
        </g>
    </g>
</svg>
