<?xml version="1.0" encoding="UTF-8" standalone="no"?>
<!DOCTYPE svg PUBLIC "-//W3C//DTD SVG 1.1//EN" "http://www.w3.org/Graphics/SVG/1.1/DTD/svg11.dtd">
<svg width="100%" height="100%" viewBox="0 0 447 872" version="1.1" xmlns="http://www.w3.org/2000/svg" xmlns:xlink="http://www.w3.org/1999/xlink" xml:space="preserve" xmlns:serif="http://www.serif.com/" style="fill-rule:evenodd;clip-rule:evenodd;stroke-linejoin:round;stroke-miterlimit:2;">
    <g transform="matrix(1,0,0,1,-5077.88,-3617.84)">
        <g>
            <g>
                <path d="M5087.12,4243.46C5066.39,4108.07 5079.71,3839.99 5135.45,3750.17C5203.29,3640.85 5292.09,3713.09 5278,3818.73C5260.86,3947.21 5266.6,4080.81 5302.74,4216.23C5342.42,4364.93 5115.1,4412.3 5087.12,4243.46Z" style="fill:rgb(37,144,69);fill-rule:nonzero;"/>
                <path d="M5219.27,3697.03C5219.27,3697.03 5149.83,3695.64 5147.32,3649.63C5147.32,3649.63 5176.61,3643.77 5190.83,3655.48C5205.05,3667.2 5210.9,3676.4 5210.9,3676.4C5210.9,3676.4 5197.52,3653.81 5229.31,3617.84C5229.31,3617.84 5256.08,3650.47 5234.33,3683.09C5234.33,3683.09 5266.96,3659.67 5293.73,3685.6C5293.73,3685.6 5275.22,3714.45 5219.27,3697.03Z" style="fill:rgb(255,200,44);fill-rule:nonzero;"/>
                <path d="M5091.31,4262.99C5091.31,4262.99 5134.66,4326.93 5163.61,4321.67C5163.61,4321.67 5134.49,4222.27 5154.23,4130.15C5154.23,4130.15 5154.61,4306.05 5204.24,4322.28C5204.24,4322.28 5228.91,4238.06 5220.53,4180.16C5220.53,4180.16 5243.23,4282.6 5239.05,4321.89C5239.05,4321.89 5257.04,4329.48 5300.09,4288.14C5300.09,4288.14 5280.73,4347 5202.94,4351.28C5202.94,4351.28 5117.88,4356.01 5091.31,4262.99Z" style="fill:rgb(110,191,94);fill-rule:nonzero;"/>
                <path d="M5145.02,3995.99C5145.02,4006.63 5140.31,4015.25 5134.49,4015.25C5128.68,4015.25 5123.96,4006.63 5123.96,3995.99C5123.96,3985.34 5128.68,3976.72 5134.49,3976.72C5140.31,3976.72 5145.02,3985.34 5145.02,3995.99Z" style="fill:rgb(110,191,94);fill-rule:nonzero;"/>
                <path d="M5208.19,4051.26C5208.19,4061.9 5203.47,4070.53 5197.66,4070.53C5191.85,4070.53 5187.13,4061.9 5187.13,4051.26C5187.13,4040.62 5191.85,4031.99 5197.66,4031.99C5203.47,4031.99 5208.19,4040.62 5208.19,4051.26Z" style="fill:rgb(110,191,94);fill-rule:nonzero;"/>
                <path d="M5133.18,4132.09C5133.18,4142.73 5128.46,4151.36 5122.65,4151.36C5116.83,4151.36 5112.12,4142.73 5112.12,4132.09C5112.12,4121.45 5116.83,4112.82 5122.65,4112.82C5128.46,4112.82 5133.18,4121.45 5133.18,4132.09Z" style="fill:rgb(110,191,94);fill-rule:nonzero;"/>
                <path d="M5203.15,4193.94C5203.15,4204.58 5198.44,4213.21 5192.63,4213.21C5186.81,4213.21 5182.1,4204.58 5182.1,4193.94C5182.1,4183.3 5186.81,4174.67 5192.63,4174.67C5198.44,4174.67 5203.15,4183.3 5203.15,4193.94Z" style="fill:rgb(110,191,94);fill-rule:nonzero;"/>
                <path d="M5270.01,4140.73C5270.01,4151.37 5265.29,4160 5259.48,4160C5253.66,4160 5248.95,4151.37 5248.95,4140.73C5248.95,4130.09 5253.66,4121.46 5259.48,4121.46C5265.29,4121.46 5270.01,4130.09 5270.01,4140.73Z" style="fill:rgb(110,191,94);fill-rule:nonzero;"/>
                <path d="M5241.58,3963.17C5241.58,3973.81 5236.87,3982.44 5231.05,3982.44C5225.24,3982.44 5220.53,3973.81 5220.53,3963.17C5220.53,3952.53 5225.24,3943.9 5231.05,3943.9C5236.87,3943.9 5241.58,3952.53 5241.58,3963.17Z" style="fill:rgb(110,191,94);fill-rule:nonzero;"/>
                <path d="M5157.85,3883.65C5157.85,3894.29 5153.14,3902.92 5147.32,3902.92C5141.51,3902.92 5136.8,3894.29 5136.8,3883.65C5136.8,3873.01 5141.51,3864.38 5147.32,3864.38C5153.14,3864.38 5157.85,3873.01 5157.85,3883.65Z" style="fill:rgb(110,191,94);fill-rule:nonzero;"/>
                <path d="M5239.44,3815.22C5239.44,3825.86 5234.73,3834.49 5228.91,3834.49C5223.1,3834.49 5218.39,3825.86 5218.39,3815.22C5218.39,3804.58 5223.1,3795.95 5228.91,3795.95C5234.73,3795.95 5239.44,3804.58 5239.44,3815.22Z" style="fill:rgb(110,191,94);fill-rule:nonzero;"/>
                <path d="M5187.13,3746.79C5187.13,3757.43 5182.42,3766.06 5176.61,3766.06C5170.79,3766.06 5166.08,3757.43 5166.08,3746.79C5166.08,3736.15 5170.79,3727.52 5176.61,3727.52C5182.42,3727.52 5187.13,3736.15 5187.13,3746.79Z" style="fill:rgb(110,191,94);fill-rule:nonzero;"/>
                <path d="M5291.06,4260C5291.06,4270.65 5286.35,4279.27 5280.53,4279.27C5274.72,4279.27 5270.01,4270.65 5270.01,4260C5270.01,4249.36 5274.72,4240.73 5280.53,4240.73C5286.35,4240.73 5291.06,4249.36 5291.06,4260Z" style="fill:rgb(110,191,94);fill-rule:nonzero;"/>
                <path d="M5517.06,4398.43C5534.43,4284.94 5523.27,4060.23 5476.55,3984.94C5419.69,3893.31 5345.25,3953.86 5357.06,4042.41C5371.43,4150.11 5366.62,4262.09 5336.33,4375.61C5303.06,4500.25 5493.61,4539.95 5517.06,4398.43Z" style="fill:rgb(71,179,73);fill-rule:nonzero;"/>
                <path d="M5406.29,3940.4C5406.29,3940.4 5464.49,3939.23 5466.6,3900.66C5466.6,3900.66 5442.05,3895.76 5430.13,3905.57C5418.21,3915.39 5413.3,3923.11 5413.3,3923.11C5413.3,3923.11 5424.52,3904.17 5397.88,3874.02C5397.88,3874.02 5375.44,3901.37 5393.67,3928.72C5393.67,3928.72 5366.32,3909.08 5343.88,3930.82C5343.88,3930.82 5359.39,3955 5406.29,3940.4Z" style="fill:rgb(255,200,44);fill-rule:nonzero;"/>
                <path d="M5513.55,4414.8C5513.55,4414.8 5477.21,4468.4 5452.95,4463.98C5452.95,4463.98 5477.35,4380.66 5460.81,4303.45C5460.81,4303.45 5460.49,4450.89 5418.89,4464.5C5418.89,4464.5 5398.21,4393.9 5405.24,4345.37C5405.24,4345.37 5386.21,4431.24 5389.71,4464.17C5389.71,4464.17 5374.63,4470.54 5338.54,4435.88C5338.54,4435.88 5354.77,4485.22 5419.98,4488.81C5419.98,4488.81 5491.28,4492.77 5513.55,4414.8Z" style="fill:rgb(110,191,94);fill-rule:nonzero;"/>
                <path d="M5468.53,4190.99C5468.53,4199.91 5472.48,4207.14 5477.35,4207.14C5482.23,4207.14 5486.18,4199.91 5486.18,4190.99C5486.18,4182.07 5482.23,4174.84 5477.35,4174.84C5472.48,4174.84 5468.53,4182.07 5468.53,4190.99Z" style="fill:rgb(110,191,94);fill-rule:nonzero;"/>
                <path d="M5415.58,4237.32C5415.58,4246.24 5419.53,4253.47 5424.4,4253.47C5429.28,4253.47 5433.23,4246.24 5433.23,4237.32C5433.23,4228.4 5429.28,4221.17 5424.4,4221.17C5419.53,4221.17 5415.58,4228.4 5415.58,4237.32Z" style="fill:rgb(110,191,94);fill-rule:nonzero;"/>
                <path d="M5478.46,4305.08C5478.46,4313.99 5482.41,4321.23 5487.28,4321.23C5492.15,4321.23 5496.1,4313.99 5496.1,4305.08C5496.1,4296.16 5492.15,4288.92 5487.28,4288.92C5482.41,4288.92 5478.46,4296.16 5478.46,4305.08Z" style="fill:rgb(110,191,94);fill-rule:nonzero;"/>
                <path d="M5419.8,4356.92C5419.8,4365.84 5423.75,4373.07 5428.62,4373.07C5433.5,4373.07 5437.45,4365.84 5437.45,4356.92C5437.45,4348 5433.5,4340.77 5428.62,4340.77C5423.75,4340.77 5419.8,4348 5419.8,4356.92Z" style="fill:rgb(110,191,94);fill-rule:nonzero;"/>
                <path d="M5363.76,4312.32C5363.76,4321.24 5367.71,4328.47 5372.59,4328.47C5377.46,4328.47 5381.41,4321.24 5381.41,4312.32C5381.41,4303.4 5377.46,4296.17 5372.59,4296.17C5367.71,4296.17 5363.76,4303.4 5363.76,4312.32Z" style="fill:rgb(110,191,94);fill-rule:nonzero;"/>
                <path d="M5387.59,4163.48C5387.59,4172.4 5391.54,4179.64 5396.41,4179.64C5401.29,4179.64 5405.24,4172.4 5405.24,4163.48C5405.24,4154.56 5401.29,4147.33 5396.41,4147.33C5391.54,4147.33 5387.59,4154.56 5387.59,4163.48Z" style="fill:rgb(110,191,94);fill-rule:nonzero;"/>
                <path d="M5457.77,4096.83C5457.77,4105.75 5461.72,4112.98 5466.6,4112.98C5471.47,4112.98 5475.42,4105.75 5475.42,4096.83C5475.42,4087.91 5471.47,4080.68 5466.6,4080.68C5461.72,4080.68 5457.77,4087.91 5457.77,4096.83Z" style="fill:rgb(110,191,94);fill-rule:nonzero;"/>
                <path d="M5389.38,4039.47C5389.38,4048.39 5393.33,4055.62 5398.21,4055.62C5403.08,4055.62 5407.03,4048.39 5407.03,4039.47C5407.03,4030.55 5403.08,4023.32 5398.21,4023.32C5393.33,4023.32 5389.38,4030.55 5389.38,4039.47Z" style="fill:rgb(110,191,94);fill-rule:nonzero;"/>
                <path d="M5433.23,3982.11C5433.23,3991.03 5437.18,3998.26 5442.05,3998.26C5446.93,3998.26 5450.88,3991.03 5450.88,3982.11C5450.88,3973.19 5446.93,3965.96 5442.05,3965.96C5437.18,3965.96 5433.23,3973.19 5433.23,3982.11Z" style="fill:rgb(110,191,94);fill-rule:nonzero;"/>
                <path d="M5346.11,4412.3C5346.11,4421.22 5350.06,4428.45 5354.94,4428.45C5359.81,4428.45 5363.76,4421.22 5363.76,4412.3C5363.76,4403.38 5359.81,4396.14 5354.94,4396.14C5350.06,4396.14 5346.11,4403.38 5346.11,4412.3Z" style="fill:rgb(110,191,94);fill-rule:nonzero;"/>
            </g>
        </g>
    </g>
</svg>
