<?xml version="1.0" encoding="UTF-8" standalone="no"?>
<!DOCTYPE svg PUBLIC "-//W3C//DTD SVG 1.1//EN" "http://www.w3.org/Graphics/SVG/1.1/DTD/svg11.dtd">
<svg width="100%" height="100%" viewBox="0 0 817 513" version="1.1" xmlns="http://www.w3.org/2000/svg" xmlns:xlink="http://www.w3.org/1999/xlink" xml:space="preserve" xmlns:serif="http://www.serif.com/" style="fill-rule:evenodd;clip-rule:evenodd;stroke-linejoin:round;stroke-miterlimit:2;">
    <g transform="matrix(1,0,0,1,-6.07085e-05,-93.7251)">
        <path d="M660.494,382.556C679.056,365.586 693.858,344.385 702.89,320.891C703.056,320.454 703.229,320.032 703.389,319.595C704.711,316.056 705.903,312.482 706.955,308.874C722.478,255.863 705.508,199.639 664.345,163.047C627.31,130.12 570.667,127.706 523.921,144.173C477.196,160.64 438.021,192.955 399.913,224.653C284.299,320.804 196.744,416.023 28.123,350.584C-19.003,332.299 3.908,378.061 19.5,397.758C77.611,471.31 154.777,496.327 249.273,504.833C395.902,518.006 551.911,481.976 660.494,382.556Z" style="fill:rgb(227,51,38);fill-rule:nonzero;"/>
    </g>
    <g transform="matrix(1,0,0,1,-6.07085e-05,-93.7251)">
        <path d="M702.267,210.984L692.286,193.482L794.587,128.271C801.562,124.284 810.441,126.712 814.438,133.69C818.421,140.676 815.976,149.551 809.008,153.538L702.267,210.984Z" style="fill:rgb(119,170,66);fill-rule:nonzero;"/>
    </g>
    <g transform="matrix(1,0,0,1,-6.07085e-05,-93.7251)">
        <path d="M755.509,263.603C768.448,261.83 780.818,255.514 789.926,244.75L722.616,187.771L707.787,100.825C693.892,103.197 682.159,110.636 674.056,120.89L658.547,93.725C632.242,108.735 623.085,142.23 638.101,168.551L696.178,270.308C711.188,296.621 744.697,305.785 771.003,290.775L755.509,263.603Z" style="fill:rgb(85,120,55);fill-rule:nonzero;"/>
    </g>
    <g transform="matrix(1,0,0,1,-6.07085e-05,-93.7251)">
        <path d="M674.333,435.231C674.333,529.463 597.949,605.838 503.731,605.838C409.512,605.838 333.122,529.463 333.122,435.231C333.122,341.018 409.512,264.635 503.731,264.635C597.949,264.635 674.333,341.018 674.333,435.231Z" style="fill:rgb(181,37,37);fill-rule:nonzero;"/>
    </g>
    <g transform="matrix(1,0,0,1,-6.07085e-05,-93.7251)">
        <path d="M647.237,435.231C647.237,514.495 582.989,578.736 503.731,578.736C424.474,578.736 360.225,514.495 360.225,435.231C360.225,355.972 424.474,291.725 503.731,291.725C582.989,291.725 647.237,355.972 647.237,435.231Z" style="fill:rgb(232,136,36);fill-rule:nonzero;"/>
    </g>
    <g transform="matrix(1,0,0,1,-6.07085e-05,-93.7251)">
        <path d="M552.402,435.244C552.402,462.118 530.619,483.915 503.731,483.915C476.843,483.915 455.053,462.118 455.053,435.244C455.053,408.349 476.843,386.559 503.731,386.559C530.619,386.559 552.402,408.349 552.402,435.244Z" style="fill:rgb(252,183,19);fill-rule:nonzero;"/>
    </g>
    <g transform="matrix(1,0,0,1,-6.07085e-05,-93.7251)">
        <path d="M523.367,344.711C523.367,362.102 514.57,376.212 503.731,376.212C492.877,376.212 484.081,362.102 484.081,344.711C484.081,327.318 492.877,313.216 503.731,313.216C514.57,313.216 523.367,327.318 523.367,344.711Z" style="fill:rgb(255,210,114);fill-rule:nonzero;"/>
    </g>
    <g transform="matrix(1,0,0,1,-6.07085e-05,-93.7251)">
        <path d="M466.405,350.459C476.628,364.534 477.806,381.108 469.037,387.48C460.254,393.853 444.851,387.626 434.628,373.552C424.404,359.477 423.227,342.896 432.002,336.509C440.785,330.144 456.182,336.385 466.405,350.459Z" style="fill:rgb(255,210,114);fill-rule:nonzero;"/>
    </g>
    <g transform="matrix(1,0,0,1,-6.07085e-05,-93.7251)">
        <path d="M423.705,388.582C440.244,393.963 450.939,406.68 447.586,417C444.234,427.32 428.11,431.33 411.556,425.956C395.016,420.574 384.322,407.851 387.681,397.53C391.034,387.217 407.158,383.207 423.705,388.582Z" style="fill:rgb(255,210,114);fill-rule:nonzero;"/>
    </g>
    <g transform="matrix(1,0,0,1,-6.07085e-05,-93.7251)">
        <path d="M411.563,444.525C428.117,439.164 444.228,443.161 447.594,453.481C450.945,463.801 440.251,476.525 423.705,481.9C407.158,487.274 391.034,483.264 387.681,472.943C384.329,462.624 395.023,449.907 411.563,444.525Z" style="fill:rgb(255,210,114);fill-rule:nonzero;"/>
    </g>
    <g transform="matrix(1,0,0,1,-6.07085e-05,-93.7251)">
        <path d="M434.634,496.93C444.864,482.862 460.254,476.629 469.044,482.994C477.813,489.366 476.649,505.948 466.412,520.022C456.189,534.096 440.785,540.337 432.002,533.958C423.233,527.572 424.411,510.997 434.634,496.93Z" style="fill:rgb(255,210,114);fill-rule:nonzero;"/>
    </g>
    <g transform="matrix(1,0,0,1,-6.07085e-05,-93.7251)">
        <path d="M484.095,525.764C484.102,508.365 492.884,494.276 503.731,494.263C514.585,494.263 523.38,508.365 523.374,525.764C523.374,543.163 514.585,557.257 503.731,557.257C492.884,557.257 484.095,543.163 484.095,525.764Z" style="fill:rgb(255,210,114);fill-rule:nonzero;"/>
    </g>
    <g transform="matrix(1,0,0,1,-6.07085e-05,-93.7251)">
        <path d="M541.057,520.015C530.827,505.934 529.664,489.373 538.425,482.987C547.208,476.615 562.612,482.848 572.835,496.93C583.058,510.997 584.235,527.572 575.453,533.958C566.677,540.323 551.28,534.089 541.057,520.015Z" style="fill:rgb(255,210,114);fill-rule:nonzero;"/>
    </g>
    <g transform="matrix(1,0,0,1,-6.07085e-05,-93.7251)">
        <path d="M583.757,481.886C567.21,476.504 556.531,463.795 559.869,453.474C563.221,443.161 579.345,439.144 595.906,444.525C612.446,449.9 623.141,462.624 619.781,472.937C616.429,483.257 600.297,487.268 583.757,481.886Z" style="fill:rgb(255,210,114);fill-rule:nonzero;"/>
    </g>
    <g transform="matrix(1,0,0,1,-6.07085e-05,-93.7251)">
        <path d="M595.893,425.935C579.345,431.31 563.235,427.307 559.869,417C556.517,406.673 567.203,393.949 583.757,388.574C600.297,383.2 616.429,387.204 619.781,397.523C623.126,407.843 612.446,420.567 595.893,425.935Z" style="fill:rgb(255,210,114);fill-rule:nonzero;"/>
    </g>
    <g transform="matrix(1,0,0,1,-6.07085e-05,-93.7251)">
        <path d="M572.828,373.545C562.598,387.612 547.208,393.838 538.425,387.487C529.649,381.108 530.813,364.534 541.057,350.452C551.28,336.379 566.677,330.138 575.453,336.509C584.221,342.896 583.058,359.47 572.828,373.545Z" style="fill:rgb(255,210,114);fill-rule:nonzero;"/>
    </g>
</svg>
