<?xml version="1.0" encoding="UTF-8" standalone="no"?>
<!DOCTYPE svg PUBLIC "-//W3C//DTD SVG 1.1//EN" "http://www.w3.org/Graphics/SVG/1.1/DTD/svg11.dtd">
<svg width="100%" height="100%" viewBox="0 0 651 701" version="1.1" xmlns="http://www.w3.org/2000/svg" xmlns:xlink="http://www.w3.org/1999/xlink" xml:space="preserve" xmlns:serif="http://www.serif.com/" style="fill-rule:evenodd;clip-rule:evenodd;stroke-linejoin:round;stroke-miterlimit:2;">
    <g transform="matrix(1,0,0,1,-63.3492,-3774.97)">
        <g>
            <g>
                <path d="M309.83,3999.38C274.228,4024.68 226.1,4025.31 185.761,4044.11C89.681,4088.89 35.625,4227.77 77.896,4317.22C166.636,4504.95 380.734,4527.18 563.864,4378.43C720.487,4251.28 760.192,3962.26 653.591,3830.99C604.689,3770.75 524.933,3759.6 458.086,3795.11C378.176,3837.56 380.707,3917.92 329.362,3981.1C323.44,3988.37 316.89,3994.36 309.83,3999.38Z" style="fill:rgb(206,169,69);fill-rule:nonzero;"/>
                <path d="M625.826,3987.7C598.749,3994.66 570.097,3963.8 567.436,3932.97L625.826,3987.7Z" style="fill:rgb(138,105,41);fill-rule:nonzero;"/>
                <path d="M617.988,4006.19C606.644,4006.19 595.105,4002.32 584.557,3994.84C565.565,3981.38 551.996,3957.68 549.996,3934.47C549.168,3924.84 556.3,3916.35 565.933,3915.53C575.57,3914.72 584.041,3921.83 584.873,3931.47C585.992,3944.44 594.187,3958.76 604.799,3966.28C608.929,3969.21 615.18,3972.35 621.473,3970.75C630.863,3968.34 640.371,3973.99 642.777,3983.35C645.184,3992.71 639.547,4002.24 630.184,4004.65C626.179,4005.68 622.099,4006.19 617.988,4006.19Z" style="fill:rgb(138,105,41);fill-rule:nonzero;"/>
                <path d="M495.39,4176.58C496.585,4216.56 542.773,4246.39 569.629,4227.16L495.39,4176.58Z" style="fill:rgb(138,105,41);fill-rule:nonzero;"/>
                <path d="M569.182,4246.65C553.195,4253.85 533.405,4251.22 515.577,4239.09C494.79,4224.96 481.942,4201.82 481.205,4177.23C480.913,4167.55 487.042,4159.43 494.873,4159.1C502.703,4158.73 509.288,4166.28 509.577,4175.93C509.926,4187.96 517.486,4200.42 529.295,4208.45C541.197,4216.55 554.25,4217.96 562.509,4212.03C569.242,4207.16 577.973,4210.02 581.912,4218.39C585.844,4226.75 583.541,4237.46 576.761,4242.3C574.355,4244.03 571.82,4245.48 569.182,4246.65Z" style="fill:rgb(138,105,41);fill-rule:nonzero;"/>
                <path d="M355.893,4144.2C327.429,4142.3 304.022,4119.7 307.655,4090.52L355.893,4144.2Z" style="fill:rgb(138,105,41);fill-rule:nonzero;"/>
                <path d="M355.911,4161.71C355.52,4161.71 355.125,4161.69 354.727,4161.66C334.759,4160.33 316.343,4151.14 304.197,4136.41C293.05,4122.91 288.107,4105.84 290.282,4088.35C291.482,4078.76 300.216,4072.01 309.818,4073.14C319.41,4074.34 326.215,4083.09 325.026,4092.68C323.774,4102.72 327.687,4109.88 331.19,4114.13C337.233,4121.45 346.658,4126.05 357.061,4126.74C366.702,4127.38 374.004,4135.72 373.359,4145.37C372.74,4154.62 365.047,4161.71 355.911,4161.71Z" style="fill:rgb(138,105,41);fill-rule:nonzero;"/>
                <path d="M321.41,4279.01C305.981,4310.68 338.243,4347.73 371.405,4340.58L321.41,4279.01Z" style="fill:rgb(138,105,41);fill-rule:nonzero;"/>
                <path d="M363.221,4358.95C344.528,4358.95 325.9,4349.84 313.465,4333.99C298.891,4315.4 295.908,4291.4 305.677,4271.35C309.909,4262.66 320.4,4259.06 329.076,4263.29C337.769,4267.51 341.378,4277.99 337.142,4286.68C331.354,4298.57 338.641,4309.36 341.018,4312.39C347.88,4321.14 358.359,4325.44 367.715,4323.48C377.167,4321.45 386.469,4327.45 388.515,4336.89C390.557,4346.35 384.548,4355.65 375.098,4357.7C371.177,4358.54 367.195,4358.95 363.221,4358.95Z" style="fill:rgb(138,105,41);fill-rule:nonzero;"/>
                <path d="M158.649,4192.93C140.754,4219.44 160.938,4245.73 186.611,4244.53L158.649,4192.93Z" style="fill:rgb(138,105,41);fill-rule:nonzero;"/>
                <path d="M184.991,4262.07C166.495,4262.07 149.184,4252.25 140.386,4236.6C131.189,4220.23 132.602,4200.23 144.143,4183.14C149.556,4175.11 160.427,4173 168.446,4178.42C176.459,4183.84 178.568,4194.72 173.16,4202.72C170.256,4207.03 167.509,4213.41 170.91,4219.45C173.665,4224.37 179.658,4227.45 185.792,4227.05C195.55,4226.7 203.638,4234.07 204.097,4243.72C204.545,4253.37 197.076,4261.57 187.424,4262.02C186.615,4262.05 185.799,4262.07 184.991,4262.07Z" style="fill:rgb(138,105,41);fill-rule:nonzero;"/>
                <path d="M434.065,3917.74C423.187,3947.82 449.198,3968.37 473.796,3960.92L434.065,3917.74Z" style="fill:rgb(138,105,41);fill-rule:nonzero;"/>
                <path d="M463.678,3979.92C449.881,3979.92 436.468,3974.49 427.032,3964.54C414.112,3950.92 410.586,3931.19 417.607,3911.78C420.898,3902.69 430.941,3898 440.016,3901.28C449.11,3904.56 453.817,3914.6 450.522,3923.69C448.761,3928.57 447.664,3935.43 452.432,3940.46C456.311,3944.53 462.702,3945.98 468.726,3944.17C477.941,3941.37 487.745,3946.59 490.546,3955.85C493.351,3965.1 488.125,3974.87 478.872,3977.67C473.876,3979.18 468.748,3979.92 463.678,3979.92Z" style="fill:rgb(138,105,41);fill-rule:nonzero;"/>
            </g>
        </g>
    </g>
</svg>
