<?xml version="1.0" encoding="UTF-8" standalone="no"?>
<!DOCTYPE svg PUBLIC "-//W3C//DTD SVG 1.1//EN" "http://www.w3.org/Graphics/SVG/1.1/DTD/svg11.dtd">
<svg width="100%" height="100%" viewBox="0 0 650 538" version="1.1" xmlns="http://www.w3.org/2000/svg" xmlns:xlink="http://www.w3.org/1999/xlink" xml:space="preserve" xmlns:serif="http://www.serif.com/" style="fill-rule:evenodd;clip-rule:evenodd;stroke-linejoin:round;stroke-miterlimit:2;">
    <g transform="matrix(1,0,0,1,-5013.35,-93.5789)">
        <g>
            <g>
                <path d="M5273.67,220.311C5273.67,220.311 5284.51,161.21 5320.27,124.363C5356.02,87.522 5370.86,94.021 5370.86,94.021L5410.21,135.194C5388.12,160.315 5384.28,219.332 5388.12,241.391L5273.67,220.311Z" style="fill:rgb(64,85,38);fill-rule:nonzero;"/>
                <path d="M5663.35,406.863C5663.35,530.578 5601.73,630.858 5525.74,630.858C5449.73,630.858 5388.12,530.578 5388.12,406.863C5388.12,283.161 5449.73,182.879 5525.74,182.879C5601.73,182.879 5663.35,283.161 5663.35,406.863Z" style="fill:rgb(232,88,36);fill-rule:nonzero;"/>
                <path d="M5288.58,406.863C5288.58,530.578 5226.96,630.858 5150.97,630.858C5074.96,630.858 5013.35,530.578 5013.35,406.863C5013.35,283.161 5074.96,182.879 5150.97,182.879C5226.96,182.879 5288.58,283.161 5288.58,406.863Z" style="fill:rgb(232,88,36);fill-rule:nonzero;"/>
                <path d="M5370.86,406.863C5370.86,530.578 5318.46,630.858 5253.83,630.858C5189.2,630.858 5136.8,530.578 5136.8,406.863C5136.8,283.161 5189.2,182.879 5253.83,182.879C5318.46,182.879 5370.86,283.161 5370.86,406.863Z" style="fill:rgb(231,102,36);fill-rule:nonzero;"/>
                <path d="M5539.89,406.863C5539.89,530.578 5487.5,630.858 5422.87,630.858C5358.24,630.858 5305.84,530.578 5305.84,406.863C5305.84,283.161 5358.24,182.879 5422.87,182.879C5487.5,182.879 5539.89,283.161 5539.89,406.863Z" style="fill:rgb(231,102,36);fill-rule:nonzero;"/>
                <path d="M5423.95,406.863C5423.95,530.578 5385.62,630.858 5338.35,630.858C5291.08,630.858 5252.75,530.578 5252.75,406.863C5252.75,283.161 5291.08,182.879 5338.35,182.879C5385.62,182.879 5423.95,283.161 5423.95,406.863Z" style="fill:rgb(232,132,36);fill-rule:nonzero;"/>
            </g>
        </g>
    </g>
</svg>
