<?xml version="1.0" encoding="UTF-8" standalone="no"?>
<!DOCTYPE svg PUBLIC "-//W3C//DTD SVG 1.1//EN" "http://www.w3.org/Graphics/SVG/1.1/DTD/svg11.dtd">
<svg width="100%" height="100%" viewBox="0 0 588 772" version="1.1" xmlns="http://www.w3.org/2000/svg" xmlns:xlink="http://www.w3.org/1999/xlink" xml:space="preserve" xmlns:serif="http://www.serif.com/" style="fill-rule:evenodd;clip-rule:evenodd;stroke-linejoin:round;stroke-miterlimit:2;">
    <g transform="matrix(1,0,0,1,-3782.35,-3707.84)">
        <g>
            <g>
                <path d="M4110.66,3944.21L4213.61,3764.8C4189.47,3750.95 4159.74,3755.94 4141.25,3775.09L4153.06,3719.98C4120.92,3713.09 4089.28,3733.57 4082.39,3765.7L4069.81,3824.4L4055.65,3758.19C4048.78,3726.05 4025.47,3703.78 4003.61,3708.46L4020.38,3786.87L4020.34,3786.8C4003.98,3758.29 3967.61,3748.44 3939.1,3764.8L4042.05,3944.21L4110.66,3944.21Z" style="fill:rgb(64,85,38);fill-rule:nonzero;"/>
                <path d="M4039.79,4411.69C4044.75,4421.95 4056.14,4447.73 4064.95,4470.95C4068.92,4481.47 4083.79,4481.47 4087.77,4470.95C4096.57,4447.73 4107.95,4421.95 4112.93,4411.69C4161.88,4310.6 4327.07,4329.8 4363.22,4177.98L3789.49,4177.98C3825.63,4329.8 3990.82,4310.6 4039.79,4411.69Z" style="fill:rgb(213,194,153);fill-rule:nonzero;"/>
                <path d="M4096.27,3900.64C4089.61,3900.64 4082.94,3900.8 4076.36,3901.12C4069.77,3900.8 4063.1,3900.64 4056.44,3900.64C3919.48,3900.64 3782.35,3971.34 3782.35,4112.59C3782.35,4137.49 3784.97,4159 3789.49,4177.98L4363.22,4177.98C4367.73,4159 4370.35,4137.49 4370.35,4112.59C4370.35,3971.34 4233.23,3900.64 4096.27,3900.64Z" style="fill:rgb(166,73,119);fill-rule:nonzero;"/>
                <path d="M3973.92,4229.03C3994.12,4268.63 3888.96,4276.55 3902.99,4234.38C3912.36,4252.79 3967.41,4248.66 3973.92,4229.03Z" style="fill:rgb(144,131,110);fill-rule:nonzero;"/>
                <path d="M4111.18,4285.93C4131.37,4325.53 4026.21,4333.45 4040.24,4291.29C4049.61,4309.69 4104.66,4305.56 4111.18,4285.93Z" style="fill:rgb(144,131,110);fill-rule:nonzero;"/>
                <path d="M4248.43,4229.03C4268.63,4268.63 4163.47,4276.55 4177.49,4234.38C4186.86,4252.79 4241.91,4248.66 4248.43,4229.03Z" style="fill:rgb(144,131,110);fill-rule:nonzero;"/>
            </g>
        </g>
    </g>
</svg>
